#!OML:ASF H:\Pregnant\Project 1\Capture day 1\Session 1\femalepreg.ASF
:FULLY-SPECIFIED
:DEGREES
1164
root 9.82985 15.7527 5.85272 20.305 -13.9855 -4.72164
lowerback -20.3119 -0.13055 -0.344788
upperback -5.64561 -0.258303 1.55805
thorax 5.24471 -0.148103 1.79986
lowerneck -20.1527 4.32212 6.09144
upperneck 22.9748 4.19813 -0.437982
head 10.9092 2.39356 -0.528586
rclavicle -2.96935e-015 9.14409e-015
rhumerus -50.7815 -16.6513 -60.2885
rradius 26.4913
rwrist -9.52251
rhand -37.8085 -18.1404
rfingers 7.12502
rthumb -10.8546 -47.8399
lclavicle -2.96935e-015 9.14409e-015
lhumerus -52.9409 -12.88 83.7582
lradius 82.4465
lwrist 35.211
lhand -29.935 -12.6198
lfingers 7.12502
lthumb -3.25472 17.3351
rfemur -38.9904 15.3728 21.338
rtibia 36.7699
rfoot -13.6399 -1.92761
rtoes -6.7783
lfemur -16.1018 -11.1987 -17.581
ltibia 18.6501
lfoot -14.4618 13.8371
ltoes -28.7189
1165
root 9.8308 15.753 5.85099 20.311 -13.9615 -4.71459
lowerback -20.3441 -0.12886 -0.321689
upperback -5.62945 -0.260048 1.54486
thorax 5.27881 -0.149059 1.77232
lowerneck -20.0908 4.32822 6.09481
upperneck 22.9178 4.20683 -0.42566
head 10.8765 2.39908 -0.524933
rclavicle -1.96673e-014 8.94531e-015
rhumerus -50.7196 -16.5916 -60.4521
rradius 26.3891
rwrist -8.86628
rhand -37.7316 -17.8881
rfingers 7.12502
rthumb -10.7804 -47.5914
lclavicle -1.96673e-014 8.94531e-015
lhumerus -52.9244 -13.0547 83.844
lradius 81.7583
lwrist 35.8061
lhand -30.0805 -12.5196
lfingers 7.12502
lthumb -3.39515 17.4331
rfemur -39.0019 15.3734 21.3235
rtibia 36.7671
rfoot -13.6341 -1.95985
rtoes -6.80744
lfemur -16.1325 -11.1941 -17.582
ltibia 18.6635
lfoot -14.4653 13.813
ltoes -28.7378
1166
root 9.83178 15.7533 5.84909 20.3189 -13.9407 -4.70652
lowerback -20.3785 -0.125323 -0.299988
upperback -5.61551 -0.259067 1.53087
thorax 5.3116 -0.148667 1.74539
lowerneck -20.0408 4.33832 6.10292
upperneck 22.8804 4.21947 -0.41596
head 10.8537 2.40662 -0.522013
rclavicle -3.61726e-014 -6.16232e-015
rhumerus -50.6272 -16.5298 -60.6339
rradius 26.2814
rwrist -8.24305
rhand -37.6565 -17.6446
rfingers 7.12502
rthumb -10.708 -47.3518
lclavicle -3.61726e-014 -6.16232e-015
lhumerus -52.8763 -13.2521 83.9424
lradius 81.0927
lwrist 36.4436
lhand -30.2213 -12.4988
lfingers 7.12502
lthumb -3.53116 17.4517
rfemur -39.0178 15.3768 21.306
rtibia 36.7656
rfoot -13.6291 -1.99217
rtoes -6.82739
lfemur -16.1641 -11.1876 -17.5842
ltibia 18.6737
lfoot -14.4666 13.7892
ltoes -28.7599
1167
root 9.83286 15.7534 5.84755 20.3185 -13.9302 -4.70063
lowerback -20.4134 -0.117372 -0.277628
upperback -5.59364 -0.252654 1.51921
thorax 5.35304 -0.145655 1.72194
lowerneck -20.0226 4.3522 6.11172
upperneck 22.8671 4.23683 -0.413351
head 10.8461 2.41557 -0.52025
rclavicle 4.81432e-015 -6.55989e-015
rhumerus -50.4912 -16.4713 -60.8287
rradius 26.1651
rwrist -7.66359
rhand -37.574 -17.3798
rfingers 7.12502
rthumb -10.6283 -47.0911
lclavicle 4.81432e-015 -6.55989e-015
lhumerus -52.7889 -13.4599 84.051
lradius 80.4471
lwrist 37.0539
lhand -30.3275 -12.4591
lfingers 7.12502
lthumb -3.63374 17.4896
rfemur -39.0237 15.3809 21.2921
rtibia 36.7641
rfoot -13.6267 -2.01357
rtoes -6.83136
lfemur -16.1812 -11.1862 -17.5895
ltibia 18.6827
lfoot -14.4673 13.7785
ltoes -28.7693
1168
root 9.83403 15.7533 5.84625 20.3088 -13.9287 -4.69665
lowerback -20.4337 -0.108591 -0.259268
upperback -5.58378 -0.244704 1.51418
thorax 5.37396 -0.141784 1.70815
lowerneck -19.9713 4.36595 6.12911
upperneck 22.8627 4.2591 -0.430659
head 10.8365 2.42525 -0.52688
rclavicle -2.86995e-014 5.76476e-015
rhumerus -50.3436 -16.3836 -61.0331
rradius 26.0491
rwrist -7.14232
rhand -37.4897 -17.108
rfingers 7.12502
rthumb -10.5471 -46.8234
lclavicle -2.86995e-014 5.76476e-015
lhumerus -52.7065 -13.6685 84.1786
lradius 79.8226
lwrist 37.5775
lhand -30.4097 -12.4507
lfingers 7.12502
lthumb -3.7131 17.4967
rfemur -39.0174 15.383 21.2831
rtibia 36.7614
rfoot -13.6269 -2.02367
rtoes -6.83015
lfemur -16.1843 -11.185 -17.5982
ltibia 18.6929
lfoot -14.4714 13.7739
ltoes -28.7647
1169
root 9.83527 15.7532 5.84501 20.2932 -13.9321 -4.69505
lowerback -20.4415 -0.0988105 -0.243513
upperback -5.58287 -0.235253 1.51541
thorax 5.37863 -0.137094 1.70285
lowerneck -19.9046 4.37864 6.16635
upperneck 22.8695 4.28367 -0.481258
head 10.8294 2.43374 -0.548619
rclavicle -1.38901e-014 1.53064e-014
rhumerus -50.1793 -16.272 -61.2498
rradius 25.9414
rwrist -6.68783
rhand -37.4002 -16.8485
rfingers 7.12502
rthumb -10.4607 -46.5683
lclavicle -1.38901e-014 1.53064e-014
lhumerus -52.6157 -13.8786 84.3223
lradius 79.2084
lwrist 37.9813
lhand -30.4827 -12.5468
lfingers 7.12502
lthumb -3.7836 17.3994
rfemur -39.0032 15.3795 21.2798
rtibia 36.7571
rfoot -13.6293 -2.02179
rtoes -6.81663
lfemur -16.179 -11.1814 -17.6077
ltibia 18.7044
lfoot -14.4788 13.7701
ltoes -28.745
